<svg version="1.1" id="Layer_1" xmlns="http://www.w3.org/2000/svg" xmlns:xlink="http://www.w3.org/1999/xlink" x="0px" y="0px" width="225px" height="49px" viewBox="0 0 612 133.043" enable-background="new 0 0 612 133.043" xml:space="preserve">
	<g>
		<g>
			<rect x="534.811" y="42.574" fill="#FFFFFF" width="7.369" height="47.076"></rect>
			<polygon fill="#FFFFFF" points="604.402,42.574 561.01,42.574 561.01,49.942 579.022,49.942 579.022,89.65 586.391,89.65
				586.391,49.942 604.402,49.942 		"></polygon>
			<polygon fill="#FFFFFF" points="281.005,42.574 257.671,89.65 265.858,89.65 282.643,55.673 299.426,89.65 307.203,89.65
				284.28,42.574 		"></polygon>
			<polygon fill="#FFFFFF" points="493.465,89.65 516.799,42.574 508.611,42.574 491.827,76.551 475.044,42.574 467.266,42.574
				490.19,89.65 		"></polygon>
			<g>
				<polygon fill="#FFFFFF" points="442.295,42.574 442.295,77.369 405.861,42.574 400.538,42.574 400.538,89.65 407.497,89.65
					407.497,54.854 444.342,89.65 449.662,89.65 449.662,89.65 449.662,42.574 			"></polygon>
			</g>
			<polygon fill="#FFFFFF" points="233.109,42.574 210.595,77.369 188.079,42.574 180.711,42.574 180.711,89.65 188.079,89.65
				188.079,54.854 209.366,89.65 211.822,89.65 233.519,54.854 233.519,89.65 240.888,89.65 240.888,42.574 		"></polygon>
			<g>
				<polygon fill="#FFFFFF" points="369.019,42.574 369.019,77.369 332.176,42.574 326.854,42.574 326.854,89.65 334.223,89.65
					334.223,54.854 370.655,89.65 375.978,89.65 375.978,89.65 375.978,42.574 			"></polygon>
			</g>
		</g>
		<g>
			<g>
				<g>
					<path fill="#939598" d="M66.907,42.165l20.469,36.433H46.439L66.907,42.165z"></path>
				</g>
			</g>
			<g>
				<g>
					<path fill="#FED208" class="logo-yellow" d="M102.113,21.287l21.286,37.252l-30.702,18.83L70.592,37.661L102.113,21.287z"></path>
				</g>
			</g>
			<g>
				<g>
					<path fill="#595A5C" d="M110.3,24.971l13.919,8.187v16.375L110.3,24.971z"></path>
				</g>
			</g>
			<g>
				<g>
					<path fill="#595A5C" d="M80.826,124.855l-14.328,8.188l-14.328-8.188H80.826z"></path>
				</g>
			</g>
			<g>
				<g>
					<path fill="#C7C8C9" d="M23.105,24.562L9.188,49.533V33.158L23.105,24.562z"></path>
				</g>
			</g>
			<g>
				<g>
					<path fill="#FED208" class="logo-yellow" d="M89.423,83.92v36.023H44.802V83.92H89.423z"></path>
				</g>
			</g>
			<g>
				<g>
					<path fill="#FED208" class="logo-yellow" d="M31.702,20.877l31.521,16.784L40.708,77.369l-30.702-18.83L31.702,20.877z"></path>
				</g>
			</g>
			<g>
				<g>
					<path fill="#595A5C" d="M124.628,64.27v35.615l-29.884,17.604V82.282L124.628,64.27z"></path>
				</g>
			</g>
			<g>
				<g>
					<path fill="#C7C8C9" d="M66.907,0l30.701,17.603L66.907,33.568L36.205,17.193L66.907,0z"></path>
				</g>
			</g>
			<g>
				<g>
					<path fill="#C7C8C9" d="M9.188,64.27L39.07,82.282v35.204L9.188,99.477V64.27z"></path>
				</g>
			</g>
		</g>
	</g>
</svg>